<?xml version="1.0" standalone="no"?>
<!DOCTYPE svg PUBLIC "-//W3C//DTD SVG 20010904//EN"
 "http://www.w3.org/TR/2001/REC-SVG-20010904/DTD/svg10.dtd">
<svg version="1.0" xmlns="http://www.w3.org/2000/svg"
 width="24.000000pt" height="24.000000pt" viewBox="0 0 24.000000 24.000000"
 preserveAspectRatio="xMidYMid meet">

<g transform="translate(0.000000,24.000000) scale(0.100000,-0.100000)"
fill="#000000" stroke="none">
<path d="M77 181 c-69 -72 -71 -93 -19 -144 44 -43 70 -46 102 -12 36 38 15
47 -32 13 -15 -11 -23 -8 -50 20 -31 31 -32 34 -18 59 8 14 24 32 36 40 18 12
24 11 47 -7 30 -24 37 -25 37 -6 0 8 -11 23 -25 34 -21 17 -23 21 -10 32 14
12 12 30 -4 30 -4 0 -33 -27 -64 -59z"/>
<path d="M95 100 c-9 -15 16 -22 70 -18 28 2 50 8 53 16 5 15 -114 17 -123 2z"/>
</g>
</svg>
